<?xml version="1.0" encoding="UTF-8"?>
<svg xmlns="http://www.w3.org/2000/svg" xmlns:xlink="http://www.w3.org/1999/xlink" viewBox="0 0 1920 1080">
  <defs>
    <style>
      .cls-1, .cls-2 {
        mix-blend-mode: soft-light;
      }

      .cls-1, .cls-3, .cls-4 {
        fill: #2f344f;
      }

      .cls-3 {
        opacity: .5;
      }

      .cls-3, .cls-5 {
        mix-blend-mode: multiply;
      }

      .cls-6 {
        fill: #001530;
      }

      .cls-7 {
        fill: #000b33;
      }

      .cls-8 {
        isolation: isolate;
      }

      .cls-9 {
        fill: url(#_Áåçûìÿííûé_ãðàäèåíò_14);
      }

      .cls-10 {
        fill: #24263b;
      }

      .cls-11 {
        fill: #001224;
      }

      .cls-5 {
        opacity: .6;
      }

      .cls-12 {
        fill: #232833;
      }
    </style>
    <linearGradient id="_Áåçûìÿííûé_ãðàäèåíò_14" data-name="Áåçûìÿííûé ãðàäèåíò 14" x1="305.39" y1="927.94" x2="305.39" y2="-130.76" gradientUnits="userSpaceOnUse">
      <stop offset="0" stop-color="#011b42"/>
      <stop offset=".15" stop-color="#021742"/>
      <stop offset=".99" stop-color="#070942"/>
    </linearGradient>
  </defs>
  <g class="cls-8">
    <g id="Calque_41" data-name="Calque 41">
      <g>
        <polygon class="cls-9" points="-162.53 -130.76 295.2 -20.55 288.83 -5.46 773.3 -11.6 675.52 156.91 616.93 174.76 567.57 184.55 571.7 224.84 518.21 349.16 534.56 345.98 578.68 382.21 323.19 720.56 310.88 737.49 354.5 805.46 301.42 847.99 274.42 862.79 269.22 869.81 332.65 850.96 394.92 865.45 217.03 897.39 82.83 927.94 -162.53 924.82 -162.53 -130.76"/>
        <polygon class="cls-11" points="310.88 737.49 21.54 764.41 190.72 836.11 354.5 805.46 310.88 737.49"/>
        <polygon class="cls-11" points="332.65 850.96 222.78 882.43 394.92 865.45 332.65 850.96"/>
        <polygon class="cls-11" points="173.44 883.86 128.99 885.14 89.84 890.23 170.51 893.83 173.44 883.86"/>
        <polygon class="cls-11" points="-19.81 776.85 62.8 829.53 52.78 891.22 -109.38 791.61 -19.81 776.85"/>
        <polygon class="cls-11" points="-51.52 838.8 8.02 874.88 -27.03 878.09 -51.52 838.8"/>
        <polygon class="cls-11" points="534.56 345.98 220.54 308.98 578.68 382.21 534.56 345.98"/>
        <polygon class="cls-11" points="571.7 224.84 406.99 243.61 392.36 222.95 567.57 184.55 571.7 224.84"/>
        <polygon class="cls-11" points="-162.53 573.68 18.49 566.29 327.51 662.48 352.15 681.92 153.15 706.92 -162.53 614.89 -162.53 573.68"/>
        <polygon class="cls-11" points="773.3 -11.6 454.13 103.68 90.31 72.37 288.83 -5.46 773.3 -11.6"/>
        <polygon class="cls-11" points="94.81 86.29 254.65 113.29 295.2 151.15 94.81 86.29"/>
        <polygon class="cls-11" points="-162.53 841.1 24.82 922.32 -65.19 914.39 -162.53 861.51 -162.53 841.1"/>
        <polygon class="cls-11" points="69.51 830.87 131.31 850.3 113.77 838.04 69.51 830.87"/>
        <polygon class="cls-11" points="-162.53 722.45 21.54 764.41 -84.25 773.27 -162.53 746.57 -162.53 722.45"/>
        <polygon class="cls-11" points="82.83 927.94 55.47 892.94 80.1 890.49 120.46 921.47 82.83 927.94"/>
        <polygon class="cls-11" points="193.99 413.25 295.2 457.76 243.65 419.87 193.99 413.25"/>
        <polygon class="cls-11" points="-162.53 111.11 1.18 88.94 220.54 308.98 -145.34 276.17 -158.17 240.89 -162.53 111.11"/>
        <polygon class="cls-11" points="382.77 218.74 254.65 197.03 254.65 217.57 382.77 218.74"/>
        <polygon class="cls-1" points="454.13 103.68 468.94 193.92 675.52 156.91 773.3 -11.6 454.13 103.68"/>
        <polygon class="cls-1" points="406.99 243.61 406.99 334.51 518.21 349.16 571.7 224.84 406.99 243.61"/>
        <polygon class="cls-1" points="153.15 706.92 165.41 751.02 310.88 737.49 352.15 681.92 153.15 706.92"/>
        <polygon class="cls-1" points="190.72 836.11 173.44 883.86 222.78 882.43 269.22 869.81 301.42 847.99 354.5 805.46 190.72 836.11"/>
        <polygon class="cls-11" points="-21.75 53.71 62.8 128.36 165.41 153.72 24.82 53.71 -21.75 53.71"/>
        <polygon class="cls-11" points="107.22 145.51 140.05 153.72 165.41 191.02 107.22 145.51"/>
        <polygon class="cls-11" points="295.2 139.28 454.13 168.27 470.12 184.55 377.55 191.02 279.91 145.51 295.2 139.28"/>
        <polygon class="cls-11" points="8.02 363.33 173.44 406.85 183.31 397.02 84.24 363.33 8.02 363.33"/>
        <polygon class="cls-11" points="295.2 -20.55 -11.01 21.29 -162.53 7.98 -162.53 -130.76 295.2 -20.55"/>
        <g class="cls-5">
          <polygon class="cls-4" points="55.47 897.14 39.9 926.03 55.47 892.94 55.47 897.14"/>
          <g>
            <polygon class="cls-4" points="153.15 706.92 120.46 755.2 14.87 762.88 -162.53 722.45 -162.53 614.89 153.15 706.92"/>
            <polygon class="cls-4" points="8.02 363.33 18.49 566.29 .25 567.04 8.02 363.33"/>
            <polygon class="cls-4" points="21.54 764.41 20.4 802.5 62.8 829.53 113.77 838.04 131.31 850.3 135.57 884.95 173.44 883.86 190.72 836.11 21.54 764.41"/>
            <polygon class="cls-4" points="90.31 72.37 86.15 97.34 24.82 53.71 -11.01 21.29 295.2 -20.55 288.83 -5.46 90.31 72.37"/>
            <polygon class="cls-4" points="62.8 128.36 62.8 151.15 1.18 88.94 -27.72 92.86 -21.75 53.71 62.8 128.36"/>
            <polygon class="cls-4" points="286.35 142.89 282.89 88.94 252.03 86.29 254.65 113.29 286.35 142.89"/>
            <polygon class="cls-4" points="377.55 191.02 382.77 218.74 254.65 197.03 240.33 133.39 295.2 151.15 377.55 191.02"/>
            <polygon class="cls-4" points="254.65 217.57 259.67 313.59 259.67 218.74 254.65 217.57"/>
            <polygon class="cls-4" points="107.22 145.51 102.94 191.02 96.5 184.55 96.5 139.28 128.66 144.64 128.66 150.87 107.22 145.51"/>
          </g>
          <polygon class="cls-4" points="193.99 413.25 153.15 608.21 190.72 453.21 193.99 413.25"/>
          <polygon class="cls-4" points="77.93 833.52 55.47 892.94 62.8 829.53 77.93 833.52"/>
          <polygon class="cls-4" points="89.84 890.23 94.54 902.56 80.1 890.49 89.84 890.23"/>
          <polygon class="cls-4" points="406.99 243.61 406.99 330.95 392.36 329.22 392.36 222.95 406.99 243.61"/>
        </g>
        <polygon class="cls-3" points="220.54 308.98 431.81 368.36 467.14 363.33 478.7 368.36 489.35 382.21 560.75 390.74 578.68 382.21 220.54 308.98"/>
        <polygon class="cls-3" points="282.89 88.94 431.81 114.59 439.54 102.43 457.36 123.39 475.72 114.59 489.35 102.43 650.96 38.39 659.22 57.12 686.07 63.27 743.69 11.25 750.41 11.25 773.3 -11.6 454.13 103.68 282.89 88.94"/>
        <polygon class="cls-3" points="-47.13 284.98 49.04 308.98 78.88 307.85 107.22 305.33 149.37 307.85 153.15 326.33 188.53 326.33 220.54 308.98 -47.13 284.98"/>
        <polygon class="cls-3" points="-162.53 614.89 -97.91 662.26 -84.25 662.26 -70.49 650.33 -60.61 651.45 -52.78 656.29 -34.13 657.04 -19.59 670.09 9.37 677.55 37.48 677.55 47.55 681.92 81.12 712.99 121.77 712.99 132.21 706.92 144.15 712.99 153.15 712.99 168.02 706.92 222.1 706.92 247.23 695.1 305.39 687.8 153.15 706.92 -162.53 614.89"/>
        <polygon class="cls-3" points="21.54 764.41 33.75 783.85 71.43 805.46 84.24 797.86 87.32 805.46 87.32 809.4 97.15 815.18 107.6 805.46 110.21 809.4 113.94 809.4 146.76 822.08 173.44 838.33 173.44 862.92 179.19 867.97 222.78 838.8 233.66 836.11 233.66 842.57 245.6 837.56 247.83 829.15 297.16 816.19 301.54 822.08 324.29 816.19 354.5 805.46 190.72 836.11 21.54 764.41"/>
        <polygon class="cls-3" points="-162.53 746.57 -162.43 751.59 -158.85 751.59 -154.97 754.94 -148.63 752.89 -144.24 752.8 -109.38 770.91 -87.65 774.9 -86.61 782.1 -71.61 773.27 -68.44 773.27 -51.66 771.92 -17.35 770.91 -12.13 774.9 7.83 768.93 21.54 764.41 -84.25 773.27 -162.53 746.57"/>
        <polygon class="cls-3" points="-53.43 825.98 -43.08 842.57 -37.49 842.57 -34.88 844.64 -19.4 850.3 -12.04 851.4 5.4 869.45 14.87 871.68 18.64 875.14 20.4 891.22 37.29 900.03 46.8 893.77 50.53 897.14 52.78 891.22 -53.43 825.98"/>
        <polygon class="cls-6" points="157.58 402.67 179.35 400.96 171.37 413.25 157.58 402.67"/>
        <polygon class="cls-6" points="425.62 101.23 477.63 95.2 456.6 118.72 425.62 101.23"/>
        <polygon class="cls-6" points="368.08 186.43 386.94 190.36 379.05 198.96 368.08 186.43"/>
        <polygon class="cls-6" points="51.88 118.72 71.83 130.59 62.8 136.38 51.88 118.72"/>
        <polygon class="cls-6" points="135.57 701.79 175.9 704.06 149.74 718.95 135.57 701.79"/>
        <g class="cls-2">
          <polygon class="cls-10" points="-53.43 625.52 135.57 701.79 175.9 704.06 263.97 693 71.43 620.49 -53.43 625.52"/>
          <polygon class="cls-10" points="84.24 608.21 131.64 632.24 197.67 632.24 105.56 608.21 84.24 608.21"/>
          <polygon class="cls-10" points="114.31 782.1 131.64 795.91 207.18 812.57 197.67 762.88 84.24 762.88 110.21 782.1 114.31 782.1"/>
          <polygon class="cls-10" points="197.67 833.38 131.31 809.4 131.31 802.5 252.65 822.08 257.54 823.61 197.67 833.38"/>
          <polygon class="cls-10" points="220.54 308.98 48.47 136.38 -98.65 151.15 -63.25 250.89 -47.13 250.89 -53.15 224.84 -4.56 235.59 17.54 291.6 220.54 308.98"/>
          <polygon class="cls-10" points="777.82 -11.6 518.66 76.7 282.89 28.59 177.34 46.04 288.83 -5.46 777.82 -11.6"/>
          <polygon class="cls-10" points="413.8 76.7 358.6 64.77 295.2 81.18 382.77 81.18 413.8 76.7"/>
          <polygon class="cls-10" points="282.89 -18.87 -54.64 -70.99 -93.21 -44.93 29.01 .62 173.57 -3.93 282.89 -18.87"/>
          <polygon class="cls-10" points="275.87 691.5 135.57 639.88 140.95 636.6 259.91 641.44 327.51 662.48 354.5 681.92 275.87 691.5"/>
          <polygon class="cls-10" points="207.18 764.41 227.69 786.8 252.65 786.8 219.49 759.98 207.18 764.41"/>
          <polygon class="cls-10" points="-109.38 791.61 -4.69 855.92 14.87 844.66 -30.98 809.4 -21.75 802.5 4.28 817.94 51.11 822.08 -19.81 776.85 -109.38 791.61"/>
          <polygon class="cls-10" points="21.54 861.51 39.9 867.58 39.9 861.23 20.4 853.99 21.54 861.51"/>
          <polygon class="cls-10" points="60.94 79.41 29.01 79.41 66.34 114.59 128.66 127.55 60.94 79.41"/>
          <polygon class="cls-10" points="165.41 53.71 208.3 64.77 168.58 72.97 128.66 63.34 165.41 53.71"/>
        </g>
        <g class="cls-2">
          <polygon class="cls-12" points="-4.69 586.55 8.02 594.94 33.75 590.75 -4.69 586.55"/>
          <polygon class="cls-12" points="305.39 567.04 316.27 555.03 352.15 540.49 305.39 583.57 305.39 567.04"/>
          <polygon class="cls-12" points="443.27 435.5 453.34 430.28 443.27 444.82 443.27 435.5"/>
          <polygon class="cls-12" points="254.92 767.81 265.74 782.1 277.3 783.85 254.92 767.81"/>
          <polygon class="cls-12" points="-15.38 6.12 -4.56 20.41 7 22.16 -15.38 6.12"/>
          <polygon class="cls-12" points="336.6 809.4 328.77 794.29 336.6 796.07 349.68 806.36 336.6 809.4"/>
          <polygon class="cls-12" points="24.82 840.58 16.69 833.38 21.54 827.82 37.11 838.8 24.82 840.58"/>
          <polygon class="cls-12" points="475.55 29.81 467.42 22.61 472.28 17.05 487.84 28.03 475.55 29.81"/>
          <polygon class="cls-12" points="30.15 827.82 37.11 828.9 37.11 824.68 30.15 827.82"/>
          <polygon class="cls-12" points="194.42 866.7 211.65 862.92 200.84 871.75 194.42 866.7"/>
          <polygon class="cls-12" points="615.58 26.86 632.81 23.09 622 31.92 615.58 26.86"/>
          <polygon class="cls-12" points="-14.64 181.88 -7.93 191.02 .25 193.63 -11.01 181.88 -14.64 181.88"/>
        </g>
        <polygon class="cls-7" points="279.91 321.12 318.71 377.13 325.78 390.74 319.44 458.4 399.67 540.49 406.99 550 426.64 583.57 430.56 578.37 409.14 549.86 400.61 540.49 334.18 461.05 329.28 434.61 326.9 390.74 283.44 321.84 289.97 317.16 339.21 287 339.58 272.51 357.86 259.83 392.36 237.82 350.96 261.88 336.41 272.88 338.44 284.05 335.22 288.31 279.91 321.12"/>
        <polygon class="cls-7" points="612.6 44.69 670.97 91.16 710.09 97.34 714.96 88.94 687 91.16 671.52 88.45 617.19 47.68 613.72 44.31 615.58 -3.3 632.81 -9.82 612.6 -3.11 612.6 44.69"/>
        <polygon class="cls-7" points="173.44 883.86 238.51 871.75 245.04 861.23 308.85 841.1 308.85 842.03 248.11 860.91 245.27 861.99 238 872.71 211 880.63 207.18 879.14 173.44 883.86"/>
        <polygon class="cls-7" points="8.02 363.33 .25 465.18 -21.75 476.52 -36 505.62 -40.35 507.9 -124.16 551.86 -162.53 562.31 -163.46 560.07 -128.07 551.54 -115.21 544.4 -43.18 508.69 -35.3 502.45 -21.71 473.91 -4.29 466.43 -1.08 462.16 8.02 363.33"/>
        <polygon class="cls-6" points="323.36 448.74 321.31 455.82 331.75 467.95 333.8 464.59 328.77 444.82 323.36 448.74"/>
        <polygon class="cls-6" points="324.1 438.29 324.1 419.09 327.55 414.42 325.83 437.18 324.1 438.29"/>
        <polygon class="cls-7" points="-104.62 735.65 -70.49 734 -47.26 701.79 -4.69 660.91 -4.69 654.06 105.27 654.06 173.57 668.04 217.81 698.25 241.49 720.82 266.11 722.45 274.69 740.03 281.72 740.2 276.46 739.37 272.99 735.74 266.52 722.27 244.94 720.7 238.72 717.66 218.93 698.66 176.6 669.35 174.03 666.69 171.14 666.92 105.27 653.59 1.02 653.59 -6.81 652.29 -12.87 657.13 -23.17 655.52 -52.22 702.92 -70.49 731.63 -104.62 735.65"/>
        <polygon class="cls-6" points="208.67 877.31 211.65 880.44 219.98 878 217.99 875.57 208.67 877.31"/>
      </g>
    </g>
  </g>
</svg>