<?xml version="1.0" encoding="UTF-8"?>
<svg xmlns="http://www.w3.org/2000/svg" xmlns:xlink="http://www.w3.org/1999/xlink" viewBox="0 0 1920 1080">
  <defs>
    <style>
      .cls-1, .cls-2, .cls-3 {
        mix-blend-mode: soft-light;
      }

      .cls-1, .cls-4 {
        fill: #24263b;
      }

      .cls-5 {
        fill: #12171f;
      }

      .cls-6 {
        fill: url(#_Áåçûìÿííûé_ãðàäèåíò_17-2);
      }

      .cls-7, .cls-8, .cls-9, .cls-10 {
        mix-blend-mode: multiply;
      }

      .cls-7, .cls-8, .cls-9, .cls-11 {
        fill: #2f344f;
      }

      .cls-7, .cls-3 {
        opacity: .8;
      }

      .cls-12 {
        fill: url(#_Áåçûìÿííûé_ãðàäèåíò_17);
      }

      .cls-13 {
        fill: url(#_Áåçûìÿííûé_ãðàäèåíò_17-3);
      }

      .cls-14 {
        fill: url(#_Áåçûìÿííûé_ãðàäèåíò_16-2);
      }

      .cls-15 {
        fill: none;
      }

      .cls-16 {
        fill: url(#_Áåçûìÿííûé_ãðàäèåíò_19);
        mix-blend-mode: screen;
        opacity: .5;
      }

      .cls-17 {
        fill: url(#_Áåçûìÿííûé_ãðàäèåíò_12);
      }

      .cls-18 {
        isolation: isolate;
      }

      .cls-9 {
        opacity: .6;
      }

      .cls-19 {
        fill: url(#_Áåçûìÿííûé_ãðàäèåíò_12-2);
      }

      .cls-10 {
        opacity: .2;
      }

      .cls-20 {
        fill: url(#_Áåçûìÿííûé_ãðàäèåíò_15);
      }

      .cls-21 {
        fill: #1c2330;
      }

      .cls-22 {
        fill: #001224;
      }

      .cls-23 {
        fill: url(#_Áåçûìÿííûé_ãðàäèåíò_18);
      }

      .cls-24 {
        fill: #000821;
      }

      .cls-25 {
        mix-blend-mode: hard-light;
      }

      .cls-26 {
        fill: url(#_Áåçûìÿííûé_ãðàäèåíò_16-3);
      }

      .cls-27 {
        fill: #353647;
      }

      .cls-28 {
        fill: url(#_Áåçûìÿííûé_ãðàäèåíò_16);
      }

      .cls-29 {
        fill: url(#_Áåçûìÿííûé_ãðàäèåíò_15-2);
      }
    </style>
    <radialGradient id="_Áåçûìÿííûé_ãðàäèåíò_19" data-name="Áåçûìÿííûé ãðàäèåíò 19" cx="2762.89" cy="2205.51" fx="2762.89" fy="2205.51" r="642.23" gradientTransform="translate(-3511.03 371.46) scale(1.59 .27)" gradientUnits="userSpaceOnUse">
      <stop offset="0" stop-color="#001a33"/>
      <stop offset=".53" stop-color="#003"/>
      <stop offset=".56" stop-color="#00002f"/>
      <stop offset=".84" stop-color="#00000d"/>
      <stop offset="1" stop-color="#000"/>
    </radialGradient>
    <linearGradient id="_Áåçûìÿííûé_ãðàäèåíò_18" data-name="Áåçûìÿííûé ãðàäèåíò 18" x1="869.54" y1="946.78" x2="869.54" y2="807.29" gradientUnits="userSpaceOnUse">
      <stop offset="0" stop-color="#000f2b"/>
      <stop offset=".99" stop-color="#070f3d"/>
    </linearGradient>
    <linearGradient id="_Áåçûìÿííûé_ãðàäèåíò_17" data-name="Áåçûìÿííûé ãðàäèåíò 17" x1="1527.81" y1="1014.94" x2="1527.81" y2="903.51" gradientUnits="userSpaceOnUse">
      <stop offset="0" stop-color="#001a33"/>
      <stop offset=".99" stop-color="#040d26"/>
    </linearGradient>
    <linearGradient id="_Áåçûìÿííûé_ãðàäèåíò_16" data-name="Áåçûìÿííûé ãðàäèåíò 16" x1="1635.72" y1="807.29" x2="1635.72" y2="755.23" gradientUnits="userSpaceOnUse">
      <stop offset="0" stop-color="#0c1538"/>
      <stop offset=".99" stop-color="#070940"/>
    </linearGradient>
    <linearGradient id="_Áåçûìÿííûé_ãðàäèåíò_17-2" data-name="Áåçûìÿííûé ãðàäèåíò 17" x1="204.62" x2="204.62" y2="863.14" xlink:href="#_Áåçûìÿííûé_ãðàäèåíò_17"/>
    <linearGradient id="_Áåçûìÿííûé_ãðàäèåíò_16-2" data-name="Áåçûìÿííûé ãðàäèåíò 16" x1="417.67" x2="417.67" y2="749.85" xlink:href="#_Áåçûìÿííûé_ãðàäèåíò_16"/>
    <linearGradient id="_Áåçûìÿííûé_ãðàäèåíò_17-3" data-name="Áåçûìÿííûé ãðàäèåíò 17" x1="204.62" x2="204.62" y2="863.14" xlink:href="#_Áåçûìÿííûé_ãðàäèåíò_17"/>
    <linearGradient id="_Áåçûìÿííûé_ãðàäèåíò_16-3" data-name="Áåçûìÿííûé ãðàäèåíò 16" x1="417.67" x2="417.67" y2="749.85" xlink:href="#_Áåçûìÿííûé_ãðàäèåíò_16"/>
    <linearGradient id="_Áåçûìÿííûé_ãðàäèåíò_15" data-name="Áåçûìÿííûé ãðàäèåíò 15" x1="1279.62" y1="910.66" x2="1279.62" y2="767.21" gradientUnits="userSpaceOnUse">
      <stop offset="0" stop-color="#00152e"/>
      <stop offset=".22" stop-color="#011133"/>
      <stop offset=".99" stop-color="#070942"/>
    </linearGradient>
    <linearGradient id="_Áåçûìÿííûé_ãðàäèåíò_15-2" data-name="Áåçûìÿííûé ãðàäèåíò 15" x1="1297.23" y1="903.14" x2="1622.57" y2="903.14" xlink:href="#_Áåçûìÿííûé_ãðàäèåíò_15"/>
    <linearGradient id="_Áåçûìÿííûé_ãðàäèåíò_12" data-name="Áåçûìÿííûé ãðàäèåíò 12" x1="402.8" y1="821.64" x2="402.8" y2="782.19" gradientUnits="userSpaceOnUse">
      <stop offset="0" stop-color="#040d42"/>
      <stop offset=".99" stop-color="#060238"/>
    </linearGradient>
    <linearGradient id="_Áåçûìÿííûé_ãðàäèåíò_12-2" data-name="Áåçûìÿííûé ãðàäèåíò 12" x1="1161.85" y1="802.84" x2="1161.85" y2="774.31" xlink:href="#_Áåçûìÿííûé_ãðàäèåíò_12"/>
  </defs>
  <g class="cls-18">
    <g id="Calque_32" data-name="Calque 32">
      <g class="cls-2">
        <polygon class="cls-4" points="1815.47 959.22 1870.62 974.38 1980.46 1014.94 1860.16 985.5 1815.47 959.22"/>
        <polygon class="cls-4" points="1084.12 903.51 1266.03 942.06 1409.82 946.78 1084.12 903.51"/>
        <polygon class="cls-4" points="-3.29 966.2 146.2 959.22 179.77 966.2 413.55 875.12 205.5 925.74 -3.29 966.2"/>
        <polygon class="cls-4" points="43.26 899.04 217.57 871.63 102.94 902.77 43.26 899.04"/>
        <polygon class="cls-4" points="1614.98 871.83 1907.93 883.77 1792.47 891.57 1614.98 871.83"/>
        <polygon class="cls-4" points="1455.13 856.15 1500.91 856.15 1546.29 865.98 1455.13 856.15"/>
        <polygon class="cls-4" points="232.54 790.5 418.55 766.4 232.54 778.57 182 790.5 232.54 790.5"/>
        <polygon class="cls-4" points="665.37 807.29 770.92 796.3 986.29 824.44 665.37 807.29"/>
      </g>
      <ellipse class="cls-16" cx="869.54" cy="959.22" rx="1018.29" ry="171.15"/>
      <g class="cls-3">
        <polygon class="cls-11" points="1084.12 903.51 1184.54 862.49 1410.56 862.49 1503.68 954.65 1273.77 943.7 1084.12 903.51"/>
        <polygon class="cls-11" points="1518 955.33 1487.39 922.16 1534.39 897.55 1832.76 934.84 1808.42 969.15 1518 955.33"/>
        <polygon class="cls-11" points="1466.51 908.57 1462.03 899.78 1517.98 893.82 1517.98 901.19 1477.7 913.58 1466.51 908.57"/>
        <polygon class="cls-11" points="636.28 863.14 531.1 837.87 296.88 862.49 408.02 877.03 636.28 863.14"/>
        <polygon class="cls-11" points="390.95 883.58 279.75 868.56 99.21 922.16 -13.43 959.22 175.6 966.2 390.95 883.58"/>
        <polygon class="cls-11" points="658.66 807.29 575.11 769.24 436.37 768.5 237.95 794.19 146.2 863.14 284.2 853.53 658.66 807.29"/>
        <polygon class="cls-11" points="675.81 807.29 658.66 778.57 716.13 759.15 880.22 755.76 933.82 821.64 675.81 807.29"/>
        <polygon class="cls-11" points="1236.88 755.23 2050.61 714.04 2050.61 787.33 1736.16 799.08 1663.81 789.01 1782.97 769.43 1780.17 756.56 1455.13 770.45 1583.25 781.26 1236.88 755.23"/>
        <polygon class="cls-11" points="1783.39 891.57 1818.22 851.11 1605.07 818.1 1455.13 856.15 1783.39 891.57"/>
        <polygon class="cls-11" points="43.26 899.04 -311.53 828.92 -311.53 917.69 -219.1 925.74 10.44 915.45 43.26 899.04"/>
        <polygon class="cls-11" points="-93.99 852.04 -55.95 863.14 16.41 863.14 -93.99 852.04"/>
        <polygon class="cls-11" points="-311.53 774.47 50.7 799.52 182 790.5 -311.53 711.06 -311.53 774.47"/>
        <polygon class="cls-11" points="91 768.5 232.54 790.5 402.36 768.5 128.3 760.29 91 768.5"/>
        <polygon class="cls-11" points="1146.87 755.29 715.35 714.04 272.26 734.67 456.56 763.86 869.54 750.25 1146.87 755.29"/>
        <polygon class="cls-11" points="908.6 708.71 1077.09 729.92 1535.11 699.46 908.6 708.71"/>
        <polygon class="cls-11" points="429.68 690.86 379.45 695.41 246.68 700 -64.76 695.43 429.68 690.86"/>
        <polygon class="cls-11" points="459.87 690.86 523.72 683.88 491.79 690.86 459.87 690.86"/>
        <polygon class="cls-11" points="1276.67 695.43 1363.94 705.84 1718.65 700.19 1643.74 675.37 1276.67 695.43"/>
        <polygon class="cls-11" points="1733.18 695.43 1851.41 690.61 2050.61 687.19 2050.61 693.16 1733.18 695.43"/>
        <polygon class="cls-11" points="1847.31 854.84 1803.67 890.82 1952.49 880.76 2019.62 831.53 1847.31 854.84"/>
        <polygon class="cls-11" points="440.84 944.99 552.74 885.61 960.19 913.58 1266.03 1000.22 417.67 975.12 440.84 944.99"/>
        <polygon class="cls-11" points="358.74 1014.94 417.67 954.65 375.95 946.78 150.68 1014.94 358.74 1014.94"/>
      </g>
      <g class="cls-3">
        <polygon class="cls-11" points="1083.12 1036.51 1183.54 995.49 1409.56 995.49 1502.68 1087.65 1272.77 1076.7 1083.12 1036.51"/>
        <polygon class="cls-11" points="1517 1088.33 1486.39 1055.16 1533.39 1030.55 1831.76 1067.84 1807.42 1102.15 1517 1088.33"/>
        <polygon class="cls-11" points="1465.51 1041.57 1461.03 1032.78 1516.98 1026.82 1516.98 1034.19 1476.7 1046.58 1465.51 1041.57"/>
        <polygon class="cls-11" points="635.28 996.14 530.1 970.87 295.88 995.49 407.02 1010.03 635.28 996.14"/>
        <polygon class="cls-11" points="389.95 1016.58 278.75 1001.56 98.21 1055.16 -14.43 1092.22 174.6 1099.2 389.95 1016.58"/>
        <polygon class="cls-11" points="657.66 940.29 574.11 902.24 435.37 901.5 236.95 927.19 145.2 996.14 283.2 986.53 657.66 940.29"/>
        <polygon class="cls-11" points="674.81 940.29 657.66 911.57 715.13 892.15 879.22 888.76 932.82 954.64 674.81 940.29"/>
        <polygon class="cls-11" points="1235.88 888.23 2049.61 847.04 2049.61 920.33 1735.16 932.08 1662.81 922.01 1781.97 902.43 1779.17 889.56 1454.13 903.45 1582.25 914.26 1235.88 888.23"/>
        <polygon class="cls-11" points="1782.39 1024.57 1817.22 984.11 1604.07 951.1 1454.13 989.15 1782.39 1024.57"/>
        <polygon class="cls-11" points="42.26 1032.04 -312.53 961.92 -312.53 1050.69 -220.1 1058.74 9.44 1048.45 42.26 1032.04"/>
        <polygon class="cls-11" points="-94.99 985.04 -56.95 996.14 15.41 996.14 -94.99 985.04"/>
        <polygon class="cls-11" points="-312.53 907.47 49.7 932.52 181 923.5 -312.53 844.06 -312.53 907.47"/>
        <polygon class="cls-11" points="90 901.5 231.54 923.5 401.36 901.5 127.3 893.29 90 901.5"/>
        <polygon class="cls-11" points="1145.87 888.29 714.35 847.04 271.26 867.67 455.56 896.86 868.54 883.25 1145.87 888.29"/>
        <polygon class="cls-11" points="907.6 841.71 1076.09 862.92 1534.11 832.46 907.6 841.71"/>
        <polygon class="cls-11" points="428.68 823.86 378.45 828.41 245.68 833 -65.76 828.43 428.68 823.86"/>
        <polygon class="cls-11" points="458.87 823.86 522.72 816.88 490.79 823.86 458.87 823.86"/>
        <polygon class="cls-11" points="1275.67 828.43 1362.94 838.84 1717.65 833.19 1642.74 808.37 1275.67 828.43"/>
        <polygon class="cls-11" points="1732.18 828.43 1850.41 823.61 2049.61 820.19 2049.61 826.16 1732.18 828.43"/>
        <polygon class="cls-11" points="1846.31 987.84 1802.67 1023.82 1951.49 1013.76 2018.62 964.53 1846.31 987.84"/>
        <polygon class="cls-11" points="439.84 1077.99 551.74 1018.61 959.19 1046.58 1265.03 1133.22 416.67 1108.12 439.84 1077.99"/>
        <polygon class="cls-11" points="357.74 1147.94 416.67 1087.65 374.95 1079.78 149.68 1147.94 357.74 1147.94"/>
      </g>
      <g>
        <polygon class="cls-23" points="-311.53 946.78 21.03 933.8 49.97 922.16 99.21 922.16 290.17 865.47 663.13 814.75 1428.46 853.53 1452.33 860.99 1823 911.41 2050.61 906.5 2050.61 866.22 1952.49 880.76 1786.89 891.95 1455.13 856.15 1432.75 848.31 665.37 807.29 284.2 853.53 102.94 902.77 43.26 899.04 10.44 915.45 -208.87 926.64 -311.53 917.69 -311.53 946.78"/>
        <polygon class="cls-12" points="1084.12 903.51 1075.17 915.45 1274.33 946.78 1805.44 974.38 1847.21 987.8 1895.72 1014.94 1980.46 1014.94 1860.16 985.5 1815.47 959.22 1273.77 943.7 1084.12 903.51"/>
        <polygon class="cls-28" points="2050.61 796.84 1734.3 807.29 1708.94 802.07 1462.78 775.96 1220.83 768.95 1236.88 755.23 1464.64 771.11 1710.06 796.47 1736.16 799.08 2050.61 787.33 2050.61 796.84"/>
        <polygon class="cls-6" points="646.44 871.81 636.28 863.14 408.02 877.03 175.6 966.2 146.2 959.22 -11.19 966.2 -237.21 1014.94 -59.31 1014.94 -13.43 990.33 -7.46 975.12 147.69 974.75 180.51 973.26 408.77 887.1 646.44 871.81"/>
        <polygon class="cls-14" points="-311.53 781.09 67.13 807.29 185.73 794.19 237.95 794.19 437.12 775.4 843.65 754.88 1146.87 762.16 1134.57 754.88 846.63 749.85 431.15 764.77 232.54 790.5 217.06 791.06 182 790.5 46.24 799.83 -311.53 774.47 -311.53 781.09"/>
        <polygon class="cls-8" points="1805.44 974.38 1815.47 959.22 1409.82 946.78 1409.82 953.82 1805.44 974.38"/>
        <polygon class="cls-8" points="1860.16 985.5 1858.31 994.01 1895.72 1014.94 1980.46 1014.94 1860.16 985.5"/>
        <polygon class="cls-8" points="408.02 877.03 408.77 887.1 646.44 871.81 636.28 863.14 408.02 877.03"/>
        <polygon class="cls-8" points="175.6 966.2 180.51 973.26 -7.46 975.12 -11.19 966.2 146.2 959.22 175.6 966.2"/>
        <polygon class="cls-8" points="102.94 902.77 99.21 922.16 49.97 922.16 43.26 899.04 102.94 902.77"/>
        <polygon class="cls-8" points="10.44 915.45 21.03 933.8 -265.86 944.99 -208.87 926.64 10.44 915.45"/>
        <polygon class="cls-9" points="663.13 814.75 665.37 807.29 1432.75 848.31 1428.46 853.53 663.13 814.75"/>
        <polygon class="cls-8" points="1455.13 856.15 1452.33 860.99 1823 911.41 1792.47 891.57 1455.13 856.15"/>
        <polygon class="cls-9" points="429.68 776.1 431.15 764.77 843.09 749.85 843.65 754.88 429.68 776.1"/>
      </g>
      <g>
        <polygon class="cls-23" points="-311.53 946.78 21.03 933.8 49.97 922.16 99.21 922.16 290.17 865.47 663.13 814.75 1428.46 853.53 1452.33 860.99 1823 911.41 2050.61 906.5 2050.61 866.22 1952.49 880.76 1786.89 891.95 1455.13 856.15 1432.75 848.31 665.37 807.29 284.2 853.53 102.94 902.77 43.26 899.04 10.44 915.45 -208.87 926.64 -311.53 917.69 -311.53 946.78"/>
        <polygon class="cls-12" points="1084.12 903.51 1075.17 915.45 1274.33 946.78 1805.44 974.38 1847.21 987.8 1895.72 1014.94 1980.46 1014.94 1860.16 985.5 1815.47 959.22 1273.77 943.7 1084.12 903.51"/>
        <polygon class="cls-28" points="2050.61 796.84 1734.3 807.29 1708.94 802.07 1462.78 775.96 1220.83 768.95 1236.88 755.23 1464.64 771.11 1710.06 796.47 1736.16 799.08 2050.61 787.33 2050.61 796.84"/>
        <polygon class="cls-13" points="646.44 871.81 636.28 863.14 408.02 877.03 175.6 966.2 146.2 959.22 -11.19 966.2 -237.21 1014.94 -59.31 1014.94 -13.43 990.33 -7.46 975.12 147.69 974.75 180.51 973.26 408.77 887.1 646.44 871.81"/>
        <polygon class="cls-26" points="-311.53 781.09 67.13 807.29 185.73 794.19 237.95 794.19 437.12 775.4 843.65 754.88 1146.87 762.16 1134.57 754.88 846.63 749.85 431.15 764.77 232.54 790.5 217.06 791.06 182 790.5 46.24 799.83 -311.53 774.47 -311.53 781.09"/>
        <polygon class="cls-8" points="1805.44 974.38 1815.47 959.22 1409.82 946.78 1409.82 953.82 1805.44 974.38"/>
        <polygon class="cls-8" points="1860.16 985.5 1858.31 994.01 1895.72 1014.94 1980.46 1014.94 1860.16 985.5"/>
        <polygon class="cls-8" points="408.02 877.03 408.77 887.1 646.44 871.81 636.28 863.14 408.02 877.03"/>
        <polygon class="cls-8" points="175.6 966.2 180.51 973.26 -7.46 975.12 -11.19 966.2 146.2 959.22 175.6 966.2"/>
        <polygon class="cls-8" points="102.94 902.77 99.21 922.16 49.97 922.16 43.26 899.04 102.94 902.77"/>
        <polygon class="cls-8" points="10.44 915.45 21.03 933.8 -265.86 944.99 -208.87 926.64 10.44 915.45"/>
        <polygon class="cls-9" points="663.13 814.75 665.37 807.29 1432.75 848.31 1428.46 853.53 663.13 814.75"/>
        <polygon class="cls-8" points="1455.13 856.15 1452.33 860.99 1823 911.41 1792.47 891.57 1455.13 856.15"/>
        <polygon class="cls-9" points="429.68 776.1 431.15 764.77 843.09 749.85 843.65 754.88 429.68 776.1"/>
      </g>
      <g>
        <polygon class="cls-20" points="1169.06 906.06 1266.9 910.66 1407.54 900.62 1426.39 823.17 1416.71 823.17 1419.77 800.92 1302.57 767.21 1132.84 846.89 1141.55 868.69 1163.97 865.46 1165.92 874.42 1152.52 879.89 1169.06 906.06"/>
        <polygon class="cls-22" points="1132.84 846.89 1312.76 840.5 1419.77 800.92 1302.57 767.21 1132.84 846.89"/>
        <polygon class="cls-22" points="1152.52 879.89 1246.52 894.49 1328.56 867.49 1165.92 874.42 1152.52 879.89"/>
        <polygon class="cls-22" points="1426.39 823.17 1346.9 850.77 1416.71 823.17 1426.39 823.17"/>
        <polygon class="cls-7" points="1163.97 865.46 1266.03 870.16 1165.92 874.42 1163.97 865.46"/>
        <polygon class="cls-7" points="1246.52 894.49 1266.9 910.66 1407.54 900.62 1426.39 823.17 1346.9 850.77 1416.71 823.17 1419.77 800.92 1315.08 841.23 1316.57 868.45 1246.52 894.49"/>
        <polygon class="cls-1" points="1315.08 841.23 1370.02 821.64 1322.49 811.87 1187.15 830.41 1152.52 846.89 1315.08 841.23"/>
        <polygon class="cls-1" points="1291.96 803.45 1302.4 794.4 1332.05 788.7 1291.96 803.45"/>
        <polygon class="cls-1" points="1246.52 894.49 1287.54 881 1200.58 881 1189.33 885.61 1246.52 894.49"/>
      </g>
      <g>
        <polygon class="cls-29" points="1314.8 915.23 1297.23 876.84 1413.96 874.22 1622.57 900.62 1622.57 918.69 1464.1 932.06 1314.8 915.23"/>
        <polygon class="cls-22" points="1297.23 876.84 1455.78 923.04 1622.57 900.62 1413.96 874.22 1297.23 876.84"/>
        <polygon class="cls-7" points="1455.78 923.04 1464.1 932.06 1622.57 918.69 1622.57 900.62 1455.78 923.04"/>
        <polygon class="cls-1" points="1455.78 923.04 1376.33 899.89 1416.4 887.74 1553.01 899.87 1571.51 907.49 1455.78 923.04"/>
        <polygon class="cls-1" points="1376.33 893.82 1363.94 887.74 1376.33 881 1403.85 881 1376.33 893.82"/>
      </g>
      <g class="cls-2">
        <polygon class="cls-4" points="1815.47 959.22 1870.62 974.38 1980.46 1014.94 1860.16 985.5 1815.47 959.22"/>
        <polygon class="cls-4" points="1084.12 903.51 1266.03 942.06 1409.82 946.78 1084.12 903.51"/>
        <polygon class="cls-4" points="-3.29 966.2 146.2 959.22 179.77 966.2 413.55 875.12 205.5 925.74 -3.29 966.2"/>
        <polygon class="cls-4" points="43.26 899.04 217.57 871.63 102.94 902.77 43.26 899.04"/>
        <polygon class="cls-4" points="1614.98 871.83 1907.93 883.77 1792.47 891.57 1614.98 871.83"/>
        <polygon class="cls-4" points="1455.13 856.15 1500.91 856.15 1546.29 865.98 1455.13 856.15"/>
        <polygon class="cls-4" points="232.54 790.5 418.55 766.4 232.54 778.57 182 790.5 232.54 790.5"/>
        <polygon class="cls-4" points="665.37 807.29 770.92 796.3 986.29 824.44 665.37 807.29"/>
      </g>
      <g class="cls-10">
        <polygon class="cls-11" points="480.77 1014.94 593.75 978.64 918.93 989.95 943.86 1014.94 480.77 1014.94"/>
        <polygon class="cls-11" points="929.51 959.22 958.65 978.64 1029.39 978.64 954.05 960.58 929.51 959.22"/>
        <polygon class="cls-11" points="796.24 832.7 822.54 862.49 1039.83 865.46 1039.83 846.89 796.24 832.7"/>
        <polygon class="cls-11" points="742.82 833.97 663.13 849.08 563.48 828.3 663.13 814.75 737.98 833.97 742.82 833.97"/>
        <polygon class="cls-11" points="950.51 781.26 979.45 807.29 1168.69 803.45 1132.84 790.5 950.51 781.26"/>
        <polygon class="cls-11" points="933.86 778.57 947.15 790.5 929.51 790.5 918.04 781.26 933.86 778.57"/>
        <polygon class="cls-11" points="429.68 799.52 339.02 799.52 313.57 828.48 436.93 814 429.68 799.52"/>
        <polygon class="cls-11" points="436.93 790.68 441.4 794.27 455.95 788.7 436.93 790.68"/>
        <polygon class="cls-11" points="332.22 750.45 380.42 738.05 470.78 746.5 332.22 750.45"/>
      </g>
      <g class="cls-25">
        <circle class="cls-5" cx="598.68" cy="189.56" r="4.25"/>
        <circle class="cls-5" cx="897.74" cy="467.09" r="4.25"/>
        <circle class="cls-5" cx="1392.99" cy="497.67" r="4.25"/>
        <path class="cls-5" d="M1388.26,515.95c0,2.35-1.9,4.25-4.25,4.25s-4.25-1.9-4.25-4.25,1.9-4.25,4.25-4.25,4.25,1.9,4.25,4.25Z"/>
        <circle class="cls-5" cx="605.26" cy="234.24" r="4.25"/>
        <circle class="cls-5" cx="433.43" cy="573.06" r="4.25"/>
        <path class="cls-5" d="M886.13,480.17c0,2.35-1.9,4.25-4.25,4.25s-4.25-1.9-4.25-4.25,1.9-4.25,4.25-4.25,4.25,1.9,4.25,4.25Z"/>
        <circle class="cls-5" cx="897.74" cy="524.11" r="4.25"/>
        <circle class="cls-5" cx="529.76" cy="282.29" r="4.25"/>
        <circle class="cls-5" cx="1327.79" cy="57.69" r="4.25"/>
        <circle class="cls-5" cx="1374.57" cy="25.29" r="4.25"/>
        <circle class="cls-5" cx="1355.23" cy="27.58" r="4.25"/>
        <path class="cls-5" d="M596.03,226.92c0,1.61-1.31,2.92-2.92,2.92s-2.92-1.31-2.92-2.92,1.31-2.92,2.92-2.92,2.92,1.31,2.92,2.92Z"/>
        <circle class="cls-5" cx="437.68" cy="560.83" r="2.92"/>
        <circle class="cls-5" cx="442.48" cy="644.59" r="2.92"/>
        <circle class="cls-5" cx="678.68" cy="61.87" r="2.92"/>
        <circle class="cls-5" cx="1293.4" cy="75.53" r="2.92"/>
        <circle class="cls-5" cx="1391.76" cy="43.81" r="2.92"/>
        <path class="cls-5" d="M1358.15,62.83c0,1.61-1.31,2.92-2.92,2.92s-2.92-1.31-2.92-2.92,1.31-2.92,2.92-2.92,2.92,1.31,2.92,2.92Z"/>
        <path class="cls-5" d="M1350.68,33.33c0,1.61-1.31,2.92-2.92,2.92s-2.92-1.31-2.92-2.92,1.31-2.92,2.92-2.92,2.92,1.31,2.92,2.92Z"/>
        <path class="cls-5" d="M1355.23,8.77c0,1.61-1.31,2.92-2.92,2.92s-2.92-1.31-2.92-2.92,1.31-2.92,2.92-2.92,2.92,1.31,2.92,2.92Z"/>
        <path class="cls-5" d="M658.72,3.04c0,1.61-1.31,2.92-2.92,2.92s-2.92-1.31-2.92-2.92,1.31-2.92,2.92-2.92,2.92,1.31,2.92,2.92Z"/>
        <circle class="cls-5" cx="676.92" cy="7.67" r="1.88"/>
        <path class="cls-5" d="M883.76,496.95c0,1.04-.84,1.88-1.88,1.88s-1.88-.84-1.88-1.88.84-1.88,1.88-1.88,1.88.84,1.88,1.88Z"/>
        <path class="cls-5" d="M422.3,535.02c0,1.04-.84,1.88-1.88,1.88s-1.88-.84-1.88-1.88.84-1.88,1.88-1.88,1.88.84,1.88,1.88Z"/>
        <path class="cls-5" d="M434,614.4c0,1.04-.84,1.88-1.88,1.88s-1.88-.84-1.88-1.88.84-1.88,1.88-1.88,1.88.84,1.88,1.88Z"/>
        <circle class="cls-5" cx="440.6" cy="583.97" r="1.88"/>
        <path class="cls-5" d="M896.51,610.15c0,1.04-.84,1.88-1.88,1.88s-1.88-.84-1.88-1.88.84-1.88,1.88-1.88,1.88.84,1.88,1.88Z"/>
        <path class="cls-5" d="M472.65,450.27c0,1.04-.84,1.88-1.88,1.88s-1.88-.84-1.88-1.88.84-1.88,1.88-1.88,1.88.84,1.88,1.88Z"/>
        <path class="cls-5" d="M442.48,398.73c0,1.04-.84,1.88-1.88,1.88s-1.88-.84-1.88-1.88.84-1.88,1.88-1.88,1.88.84,1.88,1.88Z"/>
        <circle class="cls-5" cx="1463.57" cy="797.38" r="4.25"/>
        <circle class="cls-5" cx="1467.82" cy="785.15" r="2.92"/>
        <path class="cls-5" d="M1475.54,868.91c0,1.61-1.31,2.92-2.92,2.92s-2.92-1.31-2.92-2.92,1.31-2.92,2.92-2.92,2.92,1.31,2.92,2.92Z"/>
        <path class="cls-5" d="M1452.44,759.34c0,1.04-.84,1.88-1.88,1.88s-1.88-.84-1.88-1.88.84-1.88,1.88-1.88,1.88.84,1.88,1.88Z"/>
        <path class="cls-5" d="M1464.14,838.72c0,1.04-.84,1.88-1.88,1.88s-1.88-.84-1.88-1.88.84-1.88,1.88-1.88,1.88.84,1.88,1.88Z"/>
        <path class="cls-5" d="M1472.62,808.29c0,1.04-.84,1.88-1.88,1.88s-1.88-.84-1.88-1.88.84-1.88,1.88-1.88,1.88.84,1.88,1.88Z"/>
        <path class="cls-5" d="M1502.79,674.59c0,1.04-.84,1.88-1.88,1.88s-1.88-.84-1.88-1.88.84-1.88,1.88-1.88,1.88.84,1.88,1.88Z"/>
        <path class="cls-5" d="M1472.62,623.05c0,1.04-.84,1.88-1.88,1.88s-1.88-.84-1.88-1.88.84-1.88,1.88-1.88,1.88.84,1.88,1.88Z"/>
        <path class="cls-5" d="M884.75,343.92c0,1.04-.84,1.88-1.88,1.88s-1.88-.84-1.88-1.88.84-1.88,1.88-1.88,1.88.84,1.88,1.88Z"/>
        <circle class="cls-5" cx="535.89" cy="234.86" r="3.62"/>
      </g>
      <g class="cls-2">
        <path class="cls-27" d="M387.14,992.06c5.83,2.47,8.05,3.74,15.5,3.48,4.34-.15,8.67-.54,12.65-1.42,2.78-.62,7.05-2.12,4.74-3.99-1.06-.86-6.35-1.78-8.29-2.07-6.16-.92-16.17,1.11-20.45,3.3l-4.15.69Z"/>
        <path class="cls-27" d="M173.45,916.7c5.83,2.47,8.05,3.74,15.5,3.48,4.34-.15,8.67-.54,12.65-1.42,2.78-.62,7.05-2.12,4.74-3.99-1.06-.86-6.35-1.78-8.29-2.07-6.16-.92-16.17,1.11-20.45,3.3l-4.15.69Z"/>
        <path class="cls-27" d="M1035.18,959.58c5.83,2.47,8.05,3.74,15.5,3.48,4.34-.15,8.67-.54,12.65-1.42,2.78-.62,7.05-2.12,4.74-3.99-1.06-.86-6.35-1.78-8.29-2.07-6.16-.92-16.17,1.11-20.45,3.3l-4.15.69Z"/>
        <path class="cls-27" d="M429.99,996.88c5.59-.9,12.41-2.31,18.04-.55,3.27,1.02,3.44,3.04,1.33,4.35-3.71,2.3-17.78.98-17.98-2.42l-1.38-1.38Z"/>
        <path class="cls-27" d="M449.49,858.05c5.59-.9,12.41-2.31,18.04-.55,3.27,1.02,3.44,3.04,1.33,4.35-3.71,2.3-17.78.98-17.98-2.42l-1.38-1.38Z"/>
        <path class="cls-21" d="M617.96,995.51c-2.56,1.66-7.88,3.71-4.6,5.78,6.16,3.9,21.68,3.83,30.38,3.92,12.69.13,26.77.03,38.84-2.28,4.01-.77,11.66-2.18,11.64-4.84-.01-2.69-8.49-5.01-12.74-5.77-5.69-1.01-11.93-1.62-17.89-2.01-7.58-.49-15.26-.5-22.83,0-9.67.63-15.68,1.82-22.81,5.2Z"/>
        <path class="cls-21" d="M1342.84,975.97c-4.86,2.69-14.95,5.99-8.73,9.34,11.69,6.3,41.12,6.2,57.63,6.34,24.07.21,50.78.06,73.68-3.69,7.61-1.25,22.11-3.52,22.08-7.82-.02-4.35-16.09-8.09-24.16-9.32-10.79-1.64-22.62-2.62-33.94-3.25-14.37-.8-28.94-.8-43.3,0-18.33,1.02-29.73,2.94-43.26,8.41Z"/>
        <path class="cls-21" d="M811.83,861.34c-1.38.9-4.24,2-2.48,3.11,3.32,2.1,11.68,2.07,16.36,2.11,6.84.07,14.42.02,20.92-1.23,2.16-.42,6.28-1.17,6.27-2.61,0-1.45-4.57-2.7-6.86-3.11-3.06-.55-6.42-.87-9.64-1.08-4.08-.27-8.22-.27-12.3,0-5.21.34-8.44.98-12.28,2.8Z"/>
        <path class="cls-27" d="M711.95,1002.4c3.04-.32,15.04-2.95,17.79-.02,1.21,1.28-2.09,2.28-3.9,2.77-2.5.68-6.93,1.09-9.74.57-2.85-.53-7.31-2.7-8.29-4.01l4.15.69Z"/>
        <path class="cls-27" d="M1570.35,997.96c3.04-.32,15.04-2.95,17.79-.02,1.21,1.28-2.09,2.28-3.9,2.77-2.5.68-6.93,1.09-9.74.57-2.85-.53-7.31-2.7-8.29-4.01l4.15.69Z"/>
        <path class="cls-27" d="M1028.23,784.63c3.04-.16,15.04-1.48,17.79,0,1.21.64-2.09,1.14-3.9,1.39-2.5.34-6.93.55-9.74.29-2.86-.26-3.17-1-4.15-1.66h0Z"/>
        <path class="cls-27" d="M765.86,990.68c-3.57.21-6.55.92-8.95,2.13.84,2.14,5.62,2.59,8.99,1.68,3.35-.91,3.34-3.72-1.43-3.12l1.38-.69Z"/>
        <path class="cls-27" d="M596.51,792.14c-9.35.2-17.17.9-23.43,2.08,2.21,2.09,14.73,2.53,23.56,1.64,8.77-.89,8.76-3.63-3.75-3.05l3.62-.67Z"/>
        <path class="cls-27" d="M1076,776.49c-9.35.2-17.17.9-23.43,2.08,2.21,2.09,14.73,2.53,23.56,1.64,8.77-.89,8.76-3.63-3.75-3.05l3.62-.67Z"/>
        <path class="cls-27" d="M506.99,811.87c-3.57.21-6.55.92-8.95,2.13.84,2.14,5.62,2.59,9,1.68,3.35-.91,3.34-3.72-1.43-3.12l1.38-.69Z"/>
        <path class="cls-27" d="M741.25,875.2c-3.57.21-6.55.92-8.95,2.13.84,2.14,5.62,2.59,8.99,1.68,3.35-.91,3.34-3.72-1.43-3.12l1.38-.69Z"/>
        <path class="cls-27" d="M222.35,720.03c-3.57.21-6.55.92-8.95,2.13.84,2.14,5.62,2.59,8.99,1.68,3.35-.91,3.34-3.72-1.43-3.12l1.38-.69Z"/>
        <path class="cls-27" d="M776.14,998.62c-1.37.25-2.1.27-3.15.89-.4.24-2.06,1.14-2.08,1.75-.05,1.56,3.09,1.09,4.04,1.09,1.58,0,3.03,0,4.58.29,3.04.56,6.55-.22,9.32-1.43,1.98-.87,5.06-2.16,5.78-4.47.79-2.51-2.7-2.64-4.34-2.61-2.86.05-5.61.09-8.45.42-1.33.16-2.63.46-3.89.91-1.94.69-3,1.67-1.81,3.16Z"/>
        <path class="cls-27" d="M801.88,996.75c1.36-.19,5.93-1.32,6.67.75.3.83-.67,2.13-1.31,2.57-.73.51-1.59.53-2.39.23-.61-.23-2.62-1.34-2.57-1.98.11-.02.22-.05.34-.07l-.75-1.49Z"/>
        <path class="cls-27" d="M1772.48,941.28c1.36-.19,5.93-1.32,6.67.75.3.83-.67,2.13-1.31,2.57-.73.51-1.59.53-2.39.23-.61-.23-2.62-1.34-2.57-1.98.11-.02.22-.05.34-.07l-.75-1.49Z"/>
        <path class="cls-27" d="M252.87,809.41c1.36-.19,5.93-1.32,6.67.75.3.83-.67,2.13-1.31,2.57-.73.51-1.59.53-2.39.23-.61-.23-2.62-1.34-2.57-1.98.11-.02.22-.05.34-.07l-.75-1.49Z"/>
        <path class="cls-27" d="M563.48,789.05c1.36-.19,5.93-1.32,6.67.75.3.83-.67,2.13-1.31,2.57-.73.51-1.59.53-2.39.23-.61-.23-2.62-1.34-2.57-1.98.11-.02.22-.05.34-.07l-.75-1.49Z"/>
        <path class="cls-27" d="M560.12,892.86c1.36-.19,5.93-1.32,6.67.75.3.83-.67,2.13-1.31,2.57-.73.51-1.59.53-2.39.23-.61-.23-2.62-1.34-2.57-1.98.11-.02.22-.05.34-.07l-.75-1.49Z"/>
        <path class="cls-27" d="M813.81,998.99c.5.39,1.61,1.63,2.34,1.62.17,0,.56-.32.72-.4.63-.3,1.67-.54,1.79-1.41.23-1.65-2.8-1.29-3.73-1.3l-1.12,1.49Z"/>
        <path class="cls-27" d="M1833.72,931.73c1.83.39,5.84,1.63,8.51,1.62.62,0,2.04-.32,2.62-.4,2.3-.3,6.06-.54,6.51-1.41.84-1.65-10.17-1.29-13.57-1.3l-4.07,1.49Z"/>
        <path class="cls-27" d="M944.72,814.7c.5.39,1.61,1.63,2.34,1.62.17,0,.56-.32.72-.4.63-.3,1.67-.54,1.79-1.41.23-1.65-2.8-1.29-3.73-1.3l-1.12,1.49Z"/>
        <path class="cls-27" d="M448.31,853.48c.5.39,1.61,1.63,2.34,1.62.17,0,.56-.32.72-.4.63-.3,1.67-.54,1.79-1.41.23-1.65-2.8-1.29-3.73-1.3l-1.12,1.49Z"/>
      </g>
      <g>
        <polygon class="cls-17" points="346.67 814.75 339.02 799.52 382.94 782.19 466.58 792.79 464.62 813.15 440.29 821.64 346.67 814.75"/>
        <polygon class="cls-24" points="339.02 799.52 402.8 810.08 453.17 810.08 449.49 811.87 404.29 814.75 442.52 817.73 461.92 808.63 466.58 792.79 382.94 782.19 339.02 799.52"/>
      </g>
      <g>
        <polygon class="cls-19" points="1127.28 801.4 1122.25 784.64 1143.76 774.31 1187.5 778.64 1201.46 786.52 1195.48 802.84 1127.28 801.4"/>
        <polygon class="cls-24" points="1122.25 784.64 1183.29 787.85 1201.46 786.52 1187.5 778.64 1143.76 774.31 1122.25 784.64"/>
        <polygon class="cls-24" points="1159.81 798.31 1172.95 795.57 1197.31 795.57 1183.29 799.29 1159.81 798.31"/>
      </g>
      <rect class="cls-15" x="-311.53" y="-166.13" width="2362.13" height="1181.07"/>
      <rect class="cls-15" y="-29.5" width="1920" height="1080"/>
    </g>
  </g>
</svg>