<?xml version="1.0" encoding="UTF-8"?>
<svg id="Calque_47" data-name="Calque 47" xmlns="http://www.w3.org/2000/svg" viewBox="0 0 1920 1080">
  <defs>
    <style>
      .cls-1 {
        fill: #1e1e1e;
      }
    </style>
  </defs>
  <path class="cls-1" d="M551.48,703.85l1499.12,37.98-1.06-174.04-724.89,38.31-101.87,15.31-.86-42.93-2.21.05.86,43.22-32.17,4.83-7.43,4.72-17.51-40.53,17.11-9.78-1.1-1.92-16.89,9.66-12.41-28.71,10.45-4.96-.95-2-10.38,4.93-8.01-18.54-2.04.88,8.04,18.61-29.05,13.8-11.83-19.27-1.89,1.16,11.71,19.06-11.24,5.34.95,2,11.46-5.44,17.71,28.84-19.75,11.29,1.1,1.92,19.81-11.32,24.63,40.1.94-.58-10.1,9.07v15.17l-39.07,8.84-16.61-12.5-1.33,1.77,15.11,11.37-11.09,2.51-53.53,31.73-499.56-15.77-76.42-58.49,12.48-22.3-1.93-1.08-12.32,22.02-10.86-8.31-1.35,1.76,11.11,8.51-12.59,22.5-6.37-30.53-25.69,5.32,25.72-61.26-2.04-.86-26.01,61.97,1.02.43h0s-18,0-18,0l-6.9,11.48-17.43-6,34.53-135.63,50.41,29.57,1.12-1.91-50.96-29.89,4.84-19,27.91,13.91.99-1.98-28.34-14.13,8.54-33.55-2.15-.55-8.42,33.09-25.12-12.53-.99,1.98,25.55,12.74-4.8,18.84-9.99-5.86-1.12,1.91,10.55,6.19-34.64,136.07-24.56-8.46v-101.68l-20.17-14.53,45.03-136.05-2.1-.69-44.81,135.39-64.58-46.53-225.78,220.99,510.58,12.94,1.21.93.67-.88ZM1119.42,574.63l28.77-13.67,12.47,28.87-23.61,13.5-17.63-28.7ZM1138.2,605.21l23.34-13.34,17.48,40.46,1.01-.44-9.1,5.78-8.24,7.4-24.48-39.86ZM513.01,696.97l-28.94-28.36-28.12,4.31-1.46-7.01,13.68-24.45,73.71,56.42-28.86-.91Z"/>
</svg>