<?xml version="1.0" encoding="UTF-8"?>
<svg xmlns="http://www.w3.org/2000/svg" xmlns:xlink="http://www.w3.org/1999/xlink" viewBox="0 0 1920 1080">
  <defs>
    <style>
      .cls-1 {
        fill: #24263b;
        mix-blend-mode: soft-light;
      }

      .cls-2 {
        fill: #2f344f;
        mix-blend-mode: multiply;
        opacity: .8;
      }

      .cls-3 {
        fill: url(#_Áåçûìÿííûé_ãðàäèåíò_12);
      }

      .cls-4 {
        isolation: isolate;
      }

      .cls-5 {
        fill: #000821;
      }
    </style>
    <linearGradient id="_Áåçûìÿííûé_ãðàäèåíò_12" data-name="Áåçûìÿííûé ãðàäèåíò 12" x1="1016.52" y1="512.58" x2="1016.52" y2="358.14" gradientTransform="translate(-11.21 299.45) rotate(-2.85)" gradientUnits="userSpaceOnUse">
      <stop offset="0" stop-color="#040d42"/>
      <stop offset=".99" stop-color="#060238"/>
    </linearGradient>
  </defs>
  <g class="cls-4">
    <g id="Calque_33" data-name="Calque 33">
      <g>
        <polygon class="cls-3" points="800.75 743.48 810.88 688.81 800.81 680.18 807.32 617.31 1065.69 618.18 1214.88 668.7 1215.87 688.48 1200.15 691.09 1198.72 710.15 1256.41 738.62 1256.95 749.58 800.75 743.48"/>
        <polygon class="cls-5" points="807.32 617.31 971.16 680.84 1214.88 668.7 1065.69 618.18 807.32 617.31"/>
        <polygon class="cls-5" points="1198.72 710.15 880.79 685.33 1060.56 730.54 1256.41 738.62 1198.72 710.15"/>
        <polygon class="cls-2" points="880.79 685.33 880.79 744.55 800.75 743.48 810.88 688.81 800.81 680.18 971.16 680.84 971.16 691.53 880.79 685.33"/>
        <polygon class="cls-2" points="1200.15 691.09 1007.57 695.23 1198.72 710.15 1200.15 691.09"/>
        <polygon class="cls-1" points="971.16 617.31 971.16 656.8 1037.17 671.2 1146.23 671.2 1028.85 621.48 971.16 617.31"/>
        <polygon class="cls-1" points="1034.54 724 1052.4 710.15 1155.37 712.36 1181.57 735.54 1060.56 730.54 1034.54 724"/>
        <polygon class="cls-1" points="1022.55 710.15 1028.85 706.15 1007.57 695.23 1007.57 706.15 1022.55 710.15"/>
      </g>
    </g>
  </g>
</svg>