<?xml version="1.0" encoding="UTF-8"?>
<svg xmlns="http://www.w3.org/2000/svg" xmlns:xlink="http://www.w3.org/1999/xlink" viewBox="0 0 1920 1080">
  <defs>
    <style>
      .cls-1 {
        mix-blend-mode: multiply;
        opacity: .7;
      }

      .cls-2 {
        mix-blend-mode: soft-light;
      }

      .cls-3 {
        fill: url(#_Áåçûìÿííûé_ãðàäèåíò_12);
      }

      .cls-4 {
        isolation: isolate;
      }

      .cls-5 {
        fill: #24263b;
      }

      .cls-6 {
        fill: #2f344f;
      }

      .cls-7 {
        fill: #000821;
      }
    </style>
    <linearGradient id="_Áåçûìÿííûé_ãðàäèåíò_12" data-name="Áåçûìÿííûé ãðàäèåíò 12" x1="717.89" y1="738.95" x2="717.89" y2="284.07" gradientUnits="userSpaceOnUse">
      <stop offset="0" stop-color="#040d42"/>
      <stop offset=".99" stop-color="#060238"/>
    </linearGradient>
  </defs>
  <g class="cls-4">
    <g id="Calque_41" data-name="Calque 41">
      <g>
        <polygon class="cls-3" points="558.38 738.95 548.21 687.19 566.12 683.88 566.12 678.99 558.38 656.61 570.59 649.15 570.59 652.54 528.82 630.16 528.82 598.08 569.49 601.99 501.96 364.64 591.48 327.34 516.14 319.18 507.93 294.56 628.03 284.07 933.82 351.02 845.75 389.25 826.45 390 811.53 529.05 802.58 529.8 801.09 584.66 869.54 628.27 775.72 695.43 768.26 695.43 765.28 714.04 781.47 723 774.98 738.95 558.38 738.95"/>
        <polygon class="cls-7" points="507.93 294.56 613.9 316.15 933.82 351.02 636.67 274.52 507.93 294.56"/>
        <polygon class="cls-7" points="501.96 364.64 664.63 425.06 789.2 435.39 591.48 327.34 501.96 364.64"/>
        <polygon class="cls-7" points="528.82 598.08 653.44 630.72 569.49 601.99 528.82 598.08"/>
        <polygon class="cls-7" points="869.54 628.27 679.12 624.94 586.3 575.7 801.09 584.66 869.54 628.27"/>
        <polygon class="cls-7" points="570.59 649.15 704.16 687.37 686.26 718.64 558.38 656.61 570.59 649.15"/>
        <polygon class="cls-7" points="566.12 683.88 624.3 705.84 576.61 706.2 552.74 687.37 566.12 683.88"/>
        <polygon class="cls-7" points="574.37 435.39 636.67 465.15 613.16 465.15 574.37 435.39"/>
        <polygon class="cls-7" points="704.16 717.02 740.71 705.84 781.47 723 704.16 717.02"/>
        <g class="cls-1">
          <polygon class="cls-6" points="664.63 425.06 685.54 579.84 646.44 578.21 636.67 465.15 574.37 435.39 594.2 576.03 586.3 575.7 588.52 608.5 569.49 601.99 501.96 364.64 664.63 425.06"/>
          <polygon class="cls-6" points="507.93 294.56 516.14 319.18 591.48 327.34 647.79 358.11 613.9 316.15 507.93 294.56"/>
          <polygon class="cls-6" points="679.12 624.94 685.54 682.04 570.59 649.15 528.82 630.16 528.82 598.08 658.66 630.72 612.25 616.62 605.52 585.9 679.12 624.94"/>
          <polygon class="cls-6" points="686.26 718.64 690.64 738.95 631.27 738.95 624.3 705.84 593.75 694.31 588.52 671.23 686.26 718.64"/>
          <polygon class="cls-6" points="576.61 706.2 578.75 738.95 558.38 738.95 548.21 687.19 576.61 706.2"/>
          <polygon class="cls-6" points="768.26 695.43 707.7 689.15 765.28 714.04 768.26 695.43"/>
          <polygon class="cls-6" points="845.75 389.25 672.46 342.57 826.45 390 845.75 389.25"/>
          <polygon class="cls-6" points="789.2 435.39 774.28 536.14 793.3 441.03 789.2 435.39"/>
        </g>
        <g class="cls-2">
          <polygon class="cls-5" points="679.12 624.94 624.3 595.86 628.82 583.97 741.55 588.45 826.59 628.27 679.12 624.94"/>
          <polygon class="cls-5" points="759.45 594.04 771.48 598.08 817.08 598.08 793.3 587.61 759.45 594.04"/>
          <polygon class="cls-5" points="636.67 351.09 591.13 376.69 598.61 396.28 664.63 425.06 733.25 414.55 733.25 403.55 636.67 351.09"/>
          <polygon class="cls-5" points="698.17 427.84 701.74 424.4 724.11 419.03 762.18 433.15 698.17 427.84"/>
          <polygon class="cls-5" points="657.71 320.92 685.54 287.11 794.53 315.16 770.29 333.2 657.71 320.92"/>
          <polygon class="cls-5" points="615.95 294.56 513.01 294.56 586.3 311.6 636.67 296.95 615.95 294.56"/>
          <polygon class="cls-5" points="588.52 654.28 574.37 662.24 631.27 678.8 614.55 682.04 623.21 688.05 674.03 678.75 588.52 654.28"/>
          <polygon class="cls-5" points="658.33 705.09 672.18 690.86 699.77 695.04 686.26 718.64 658.33 705.09"/>
          <polygon class="cls-5" points="577.86 354.96 586.3 342.57 573.16 348.21 563.09 351.09 577.86 354.96"/>
          <polygon class="cls-5" points="624.3 307.6 628.54 303.08 645.58 305.34 636.67 311.6 624.3 307.6"/>
          <polygon class="cls-5" points="804.77 614.4 826.59 618.94 832.74 616.67 804.77 614.4"/>
        </g>
      </g>
    </g>
  </g>
</svg>