<?xml version="1.0" encoding="UTF-8"?>
<svg xmlns="http://www.w3.org/2000/svg" xmlns:xlink="http://www.w3.org/1999/xlink" viewBox="0 0 1920 1080">
  <defs>
    <style>
      .cls-1 {
        mix-blend-mode: multiply;
        opacity: .7;
      }

      .cls-2 {
        mix-blend-mode: soft-light;
      }

      .cls-3 {
        fill: url(#_Áåçûìÿííûé_ãðàäèåíò_12);
      }

      .cls-4 {
        isolation: isolate;
      }

      .cls-5 {
        fill: #24263b;
      }

      .cls-6 {
        fill: #2f344f;
      }

      .cls-7 {
        fill: #000821;
      }
    </style>
    <linearGradient id="_Áåçûìÿííûé_ãðàäèåíò_12" data-name="Áåçûìÿííûé ãðàäèåíò 12" x1="1370.02" y1="756.56" x2="1370.02" y2="186.54" gradientUnits="userSpaceOnUse">
      <stop offset="0" stop-color="#040d42"/>
      <stop offset=".99" stop-color="#060238"/>
    </linearGradient>
  </defs>
  <g class="cls-4">
    <g id="Calque_41" data-name="Calque 41">
      <g>
        <polygon class="cls-3" points="1101.17 755.61 1273.36 743.94 1273.36 729.38 1288.03 723.94 1266.03 621.81 1363.43 595.71 1363.43 584.38 1322.49 584.38 1322.49 562.99 1363.43 555.73 1357.51 548.02 1185.37 447.49 1140.28 428.48 1188.67 420.75 1182.07 407.65 1168.88 402.84 1067.43 219.69 1377.48 186.54 1417.08 195.09 1475.74 327.71 1440.54 218.62 1493.22 200.44 1672.62 238.94 1644.39 756.56 1101.17 755.61"/>
        <polygon class="cls-7" points="1417.08 195.09 1276.67 290.93 1191.63 281.28 1067.43 219.69 1377.48 186.54 1417.08 195.09"/>
        <polygon class="cls-7" points="1140.28 428.48 1236.88 435.39 1400.87 365.09 1188.67 420.75 1140.28 428.48"/>
        <polygon class="cls-7" points="1322.49 562.99 1377.37 573.06 1570.94 539.87 1567.58 535.02 1363.43 555.73 1322.49 562.99"/>
        <polygon class="cls-7" points="1266.03 621.81 1359.47 637.67 1555.54 582.63 1363.43 595.71 1266.03 621.81"/>
        <polygon class="cls-7" points="1273.36 729.38 1309.12 750.97 1372.89 750.97 1288.03 723.94 1273.36 729.38"/>
        <polygon class="cls-7" points="1273.36 743.94 1291.96 750.97 1151.75 752.18 1273.36 743.94"/>
        <polygon class="cls-7" points="1372.89 723.78 1459.9 726.56 1432.75 736.45 1372.89 723.78"/>
        <polygon class="cls-7" points="1475.74 327.71 1417.08 358.11 1555.42 338.07 1475.74 327.71"/>
        <polygon class="cls-7" points="1440.54 218.62 1672.62 238.94 1493.22 200.44 1440.54 218.62"/>
        <polygon class="cls-7" points="1242.73 312.77 1327.76 278.94 1305.39 305.1 1242.73 312.77"/>
        <polygon class="cls-7" points="1438.76 645.83 1537.74 599.08 1594.44 591.41 1438.76 645.83"/>
        <polygon class="cls-7" points="1438.76 743.94 1488.14 723.78 1555.54 722.37 1477.32 737.46 1438.76 743.94"/>
        <polygon class="cls-7" points="1480.68 747.44 1506.79 742.02 1509.77 748.06 1480.68 747.44"/>
        <polygon class="cls-7" points="1486.25 659.22 1529.54 649.85 1507.89 664.57 1486.25 659.22"/>
        <g class="cls-1">
          <polygon class="cls-6" points="1400.87 365.09 1433.7 548.6 1446.71 548.6 1417.08 358.11 1475.74 327.71 1417.08 195.09 1276.67 290.93 1280.21 297.86 1327.76 278.94 1305.39 305.1 1327.76 381.36 1400.87 365.09"/>
          <polygon class="cls-6" points="1377.37 573.06 1382.22 582.63 1363.43 584.38 1363.43 595.71 1555.54 582.63 1570.94 539.87 1377.37 573.06"/>
          <polygon class="cls-6" points="1359.47 637.67 1354.27 745.04 1376.2 750.97 1309.12 750.97 1309.12 755.23 1480.68 756.28 1480.68 747.44 1506.79 742.02 1509.77 748.06 1509.77 756.56 1550.8 756.56 1553.01 722.86 1438.76 743.94 1462.76 734.14 1459.9 726.56 1432.75 736.45 1372.89 723.78 1432.75 725.69 1438.76 645.83 1537.74 599.08 1536.17 588.07 1359.47 637.67"/>
          <polygon class="cls-6" points="1242.73 312.77 1258.76 400.91 1233.03 309 1242.73 312.77"/>
          <polygon class="cls-6" points="1182.07 407.65 1242.26 407.65 1188.67 420.75 1182.07 407.65"/>
        </g>
        <g class="cls-2">
          <polygon class="cls-5" points="1191.63 281.28 1353.13 231.77 1370.02 227.21 1270.57 290.94 1191.63 281.28"/>
          <polygon class="cls-5" points="1080.89 218.25 1127.11 238.94 1280.83 227.21 1309.12 193.85 1080.89 218.25"/>
          <polygon class="cls-5" points="1309.12 216.4 1322.49 206.06 1338.95 206.06 1327.76 216.4 1309.12 216.4"/>
          <polygon class="cls-5" points="1359.03 569.7 1376.2 554.04 1457.32 548.6 1438.76 562.54 1377.37 573.06 1359.03 569.7"/>
          <polygon class="cls-5" points="1486.25 543.27 1486.25 548.6 1516.6 548.6 1533.61 538.47 1486.25 543.27"/>
          <polygon class="cls-5" points="1475.74 221.7 1489.85 216.36 1583.31 219.03 1615.51 233.94 1475.74 221.7"/>
          <polygon class="cls-5" points="1236.88 435.39 1286.3 414.2 1258.76 400.91 1188.67 420.75 1140.28 428.48 1236.88 435.39"/>
          <polygon class="cls-5" points="1292.75 411.44 1289.81 400.91 1304.08 393.48 1341.16 390.68 1292.75 411.44"/>
          <polygon class="cls-5" points="1170.93 238.94 1175.97 244.94 1186.87 241.94 1205.9 238.74 1170.93 238.94"/>
          <polygon class="cls-5" points="1266.03 621.81 1324.66 606.1 1370.02 608.03 1356.39 624.25 1334.01 620.9 1303.38 628.15 1266.03 621.81"/>
          <polygon class="cls-5" points="1322.49 631.39 1329.26 628.15 1349.68 629.77 1349.68 636.01 1322.49 631.39"/>
          <polygon class="cls-5" points="1419.77 589.37 1400.87 626.05 1463.38 608.5 1482.46 587.61 1419.77 589.37"/>
        </g>
      </g>
    </g>
  </g>
</svg>