<?xml version="1.0" encoding="UTF-8"?>
<svg xmlns="http://www.w3.org/2000/svg" xmlns:xlink="http://www.w3.org/1999/xlink" viewBox="0 0 1920 1080">
  <defs>
    <style>
      .cls-1, .cls-2 {
        mix-blend-mode: soft-light;
      }

      .cls-1, .cls-3, .cls-4 {
        fill: #2f344f;
      }

      .cls-3 {
        opacity: .5;
      }

      .cls-3, .cls-5 {
        mix-blend-mode: multiply;
      }

      .cls-6 {
        fill: #001530;
      }

      .cls-7 {
        fill: #000b33;
      }

      .cls-8 {
        isolation: isolate;
      }

      .cls-9 {
        fill: url(#_Áåçûìÿííûé_ãðàäèåíò_14);
      }

      .cls-10 {
        fill: #24263b;
      }

      .cls-11 {
        fill: #001224;
      }

      .cls-5 {
        opacity: .6;
      }

      .cls-12 {
        fill: #232833;
      }
    </style>
    <linearGradient id="_Áåçûìÿííûé_ãðàäèåíò_14" data-name="Áåçûìÿííûé ãðàäèåíò 14" x1="1630.02" y1="843.31" x2="1630.02" y2="-137.13" gradientUnits="userSpaceOnUse">
      <stop offset="0" stop-color="#011b42"/>
      <stop offset=".15" stop-color="#021742"/>
      <stop offset=".99" stop-color="#070942"/>
    </linearGradient>
  </defs>
  <g class="cls-8">
    <g id="Calque_41" data-name="Calque 41">
      <g>
        <polygon class="cls-9" points="1505.42 836.92 1447.35 679.11 1541.76 626.66 1530.35 626.35 1538.38 604.27 1489.93 324.59 1524.17 322.08 1457.16 307.33 1449.25 260.88 1470.14 242.38 1396.47 226.03 1334.02 144.63 1341.6 134.72 1317.54 100.14 1639.6 -18.34 1685.35 -137.13 1751.33 93.29 1940.24 -1.15 1940.54 .61 1942.5 839.7 1845.92 843.31 1766.72 838.67 1766.14 830.63 1649.69 830.94 1649.46 839.7 1505.42 836.92"/>
        <polygon class="cls-11" points="1766.85 840.4 1766.47 835.15 1802.88 768.94 1872 744.47 1854.07 819.56 1845.92 843.31 1766.85 840.4"/>
        <polygon class="cls-1" points="1548.07 5.9 1573.29 87.42 1341.6 134.72 1317.54 100.14 1548.07 5.9"/>
        <polygon class="cls-1" points="1579.8 111.56 1590.01 189.93 1708.46 246.64 1754.76 248.99 1396.47 226.03 1334.02 144.63 1579.8 111.56"/>
        <polygon class="cls-1" points="1607.48 255 1619.63 331.21 1457.16 307.33 1449.25 260.88 1607.48 255"/>
        <polygon class="cls-1" points="1538.38 604.27 1556.85 616.15 1690.27 619.89 1743.1 388.91 1489.93 324.59 1538.38 604.27"/>
        <polygon class="cls-1" points="1596.21 652.57 1592.48 624.27 1565.28 623.14 1541.76 626.66 1596.21 652.57"/>
        <polygon class="cls-1" points="1610.38 682.17 1574.96 815.35 1600.23 826.05 1649.46 839.7 1505.42 836.92 1447.35 679.11 1610.38 682.17"/>
        <polygon class="cls-11" points="1639.6 -18.34 1685.35 -137.13 1341.8 40.9 1317.54 100.14 1639.6 -18.34"/>
        <polygon class="cls-11" points="1579.8 111.56 1640.31 103.28 1573.29 87.42 1341.6 134.72 1334.02 144.63 1579.8 111.56"/>
        <polygon class="cls-11" points="1470.14 242.38 1449.25 260.88 1611.3 278.93 1754.76 248.99 1470.14 242.38"/>
        <polygon class="cls-11" points="1524.17 322.08 1489.93 324.59 1743.1 388.91 1823.43 332.84 1619.63 331.21 1524.17 322.08"/>
        <polygon class="cls-11" points="1537.14 629.22 1447.35 679.11 1610.38 682.17 1703.97 641.04 1597.35 642.79 1537.14 629.22"/>
        <polygon class="cls-11" points="1751.33 401.95 1786.84 371.86 1824.74 362.99 1789.16 530.49 1751.33 401.95"/>
        <polygon class="cls-11" points="1617.55 738.05 1738.73 634.48 1948 568.02 1761.09 761.74 1617.55 738.05"/>
        <polygon class="cls-11" points="1618.48 750.56 1686.67 760.18 1652 765.47 1618.48 750.56"/>
        <polygon class="cls-11" points="1608.09 690.79 1644.69 676.25 1617.78 701.9 1605.97 701.71 1608.09 690.79"/>
        <polygon class="cls-11" points="1704.25 276.09 1800.57 266.94 1820.85 273.7 1729.77 285.86 1704.25 276.09"/>
        <polygon class="cls-11" points="1743.1 177.06 1894.33 190.96 1850.85 150.15 1743.1 177.06"/>
        <polygon class="cls-11" points="1941.15 260.94 1824.74 362.99 1941.21 286.98 1941.15 260.94"/>
        <polygon class="cls-11" points="1940.24 -1.15 1596.72 174.54 1844.55 151.94 1940.54 127.58 1940.24 -1.15"/>
        <polygon class="cls-11" points="1650.73 101.95 1719.98 84.62 1690.95 99.62 1650.73 101.95"/>
        <polygon class="cls-11" points="1854.07 819.56 1873.18 784.44 1932.97 767.39 1900.1 793.61 1854.07 819.56"/>
        <polygon class="cls-11" points="1644.27 830.81 1692.54 809.83 1736.26 804.08 1680.28 826.03 1644.27 830.81"/>
        <polygon class="cls-11" points="1639.75 817.14 1655.21 807.59 1670.23 807.66 1646.65 816.38 1639.75 817.14"/>
        <polygon class="cls-11" points="1792.8 752.11 1830.32 705.28 1903.89 668.22 1904.21 687.68 1792.8 752.11"/>
        <polygon class="cls-11" points="1909.39 687.77 1941.82 675.31 1941.78 655.69 1909.39 687.77"/>
        <polygon class="cls-11" points="1861.67 831.8 1895.57 807.76 1942.09 789.67 1942.14 812.37 1861.67 831.8"/>
        <polygon class="cls-11" points="1916.8 756.27 1932.84 745.09 1939.55 750.83 1916.8 756.27"/>
        <polygon class="cls-11" points="1761.6 768.64 1789.64 752.08 1794.91 749.48 1740.1 794.43 1761.6 768.64"/>
        <polygon class="cls-11" points="1831.73 563.73 1849.76 513.51 1913.96 396.34 1866.69 565.02 1831.73 563.73"/>
        <polygon class="cls-11" points="1818.69 570.13 1784.72 578.66 1777.17 586.02 1808.02 581.53 1818.69 570.13"/>
        <polygon class="cls-11" points="1512.57 782.93 1573.39 764.94 1568.72 774.07 1515.48 799.87 1512.57 782.93"/>
        <g class="cls-5">
          <polygon class="cls-4" points="1640.31 103.28 1640.31 152.25 1650.73 144.63 1645.52 101.95 1640.31 103.28"/>
          <polygon class="cls-4" points="1639.6 -18.34 1656.68 100.14 1719.98 84.62 1690.95 99.62 1689.48 127.1 1751.33 93.29 1685.35 -137.13 1639.6 -18.34"/>
          <polygon class="cls-4" points="1894.33 190.96 1872.84 322.08 1941.15 260.94 1940.54 127.58 1850.85 150.15 1894.33 190.96"/>
          <polygon class="cls-4" points="1820.85 273.7 1813.39 331.21 1823.43 332.84 1820.85 273.7"/>
          <polygon class="cls-4" points="1704.25 276.09 1708.21 331.92 1695.47 331.21 1685.35 266.94 1754.76 248.99 1751.33 271.62 1704.25 276.09"/>
          <polygon class="cls-4" points="1789.16 530.49 1792.24 576.77 1818.69 570.13 1824.74 362.99 1789.16 530.49"/>
          <polygon class="cls-4" points="1866.69 565.02 1866.69 593.84 1886.28 587.62 1913.96 396.34 1866.69 565.02"/>
          <polygon class="cls-4" points="1617.78 701.9 1623.18 733.23 1637.35 721.12 1644.69 676.25 1617.78 701.9"/>
          <polygon class="cls-4" points="1761.09 761.74 1761.6 768.64 1794.91 749.48 1830.32 705.28 1903.89 668.22 1904.21 687.68 1890.32 779.55 1899.76 776.86 1909.39 687.77 1941.78 655.69 1940.61 575.69 1761.09 761.74"/>
          <polygon class="cls-4" points="1872 744.47 1873.18 784.44 1854.07 819.56 1872 744.47"/>
          <polygon class="cls-4" points="1900.1 793.61 1899.82 806.1 1942.09 789.67 1940.61 767.39 1932.97 767.39 1900.1 793.61"/>
          <polygon class="cls-4" points="1861.67 831.8 1858.45 842.84 1845.92 843.31 1854.07 819.56 1881.52 804.08 1882.34 817.14 1861.67 831.8"/>
          <polygon class="cls-4" points="1736.26 804.08 1736.26 830.71 1743.1 830.69 1736.26 804.08"/>
          <polygon class="cls-4" points="1670.23 807.66 1670.23 817.45 1675.72 817.14 1670.23 807.66"/>
          <polygon class="cls-4" points="1686.67 760.18 1686.27 812.55 1692.54 809.83 1695.37 750.89 1632.89 740.58 1632.89 752.11 1686.67 760.18"/>
          <polygon class="cls-4" points="1618.48 750.56 1618.48 785.52 1604.23 785.52 1574.96 815.35 1596.21 735.44 1618.48 750.56"/>
          <polygon class="cls-4" points="1568.72 774.07 1566.77 822.07 1571.51 817.45 1573.39 764.94 1568.72 774.07"/>
          <polygon class="cls-4" points="1680.28 826.03 1683.23 830.71 1704.75 816.44 1680.28 826.03"/>
        </g>
        <polygon class="cls-11" points="1545.42 837.7 1587.92 842.84 1629.87 785.62 1604.23 785.52 1545.42 837.7"/>
        <polygon class="cls-3" points="1489.93 324.59 1544.39 370.85 1568.73 358.91 1593.34 362.99 1609.01 380.17 1656.68 376.07 1697.03 388.91 1727.61 400.69 1737.73 412.4 1754.76 385.02 1788.04 362.99 1823.43 332.84 1743.1 388.91 1489.93 324.59"/>
        <polygon class="cls-3" points="1449.25 260.88 1464.3 266.94 1481.45 266.94 1534.44 276.4 1568.73 297 1593.72 285.86 1609.01 285.86 1613.14 290.45 1619.63 280.96 1635.86 276.4 1640.31 276.4 1656.68 273.88 1665.84 267.55 1611.3 278.93 1449.25 260.88"/>
        <polygon class="cls-3" points="1334.02 144.63 1579.8 111.56 1640.31 103.28 1622.81 111.56 1609.89 110.7 1608.35 111.56 1607.66 113.64 1588.91 114.48 1582.2 112.52 1578.56 113.22 1530.31 127.1 1512.69 123.95 1469.33 136.72 1418.98 154.62 1385.97 147.63 1375.62 144.63 1345.13 144.63 1334.02 144.63"/>
        <polygon class="cls-3" points="1317.54 100.14 1639.6 -18.34 1667.38 -90.46 1685.35 -137.13 1677.17 -93.22 1670.45 -73.64 1670.45 -68.32 1661.22 -59.93 1656.47 -46.22 1650.73 -43.15 1652.83 -35.31 1643.64 9.68 1602.67 1.61 1587.37 5.9 1570.22 28.46 1539.64 31.07 1515.77 35.18 1402.76 73.22 1317.54 100.14"/>
        <polygon class="cls-3" points="1500.1 680.1 1610.38 682.17 1703.97 641.04 1673.16 657.66 1655.26 664.88 1650.59 670.53 1623.18 679.31 1609.48 685.56 1605.97 701.71 1565.74 687.31 1555.3 683.43 1548.41 686.19 1500.1 680.1"/>
        <polygon class="cls-3" points="1743.1 177.06 1788.04 196.3 1813.39 190.96 1843.6 203.57 1850.85 196.86 1894.33 190.96 1743.1 177.06"/>
        <polygon class="cls-6" points="1582.49 275.72 1630.02 273.7 1613.14 290.45 1582.49 275.72"/>
        <polygon class="cls-6" points="1729.64 385.49 1758.05 378.47 1739.17 405.53 1729.64 385.49"/>
        <polygon class="cls-6" points="1724.07 283.68 1736.56 285.86 1729.64 297 1724.07 283.68"/>
        <polygon class="cls-6" points="1590.48 682.17 1625.33 675.19 1608.09 690.79 1590.48 682.17"/>
        <polygon class="cls-6" points="1612.36 701.71 1622 697.88 1618.48 705.99 1612.36 701.71"/>
        <polygon class="cls-6" points="1748.31 759.41 1772.93 749.48 1761.6 768.64 1748.31 759.41"/>
        <polygon class="cls-6" points="1643.62 761.74 1659.91 764.27 1651.76 771.96 1643.62 761.74"/>
        <g class="cls-2">
          <polygon class="cls-10" points="1693.67 726.95 1736.26 652.57 1813.39 637.85 1754.76 702.04 1693.67 726.95"/>
          <polygon class="cls-10" points="1714.93 726.95 1748.31 711.78 1792.8 711.78 1743.85 735.44 1714.93 726.95"/>
          <polygon class="cls-10" points="1625.33 675.19 1654.99 641.04 1597.35 642.79 1525.72 675.19 1625.33 675.19"/>
          <polygon class="cls-10" points="1562.62 634.96 1504.02 678.61 1447.35 679.11 1537.14 629.22 1562.62 634.96"/>
          <polygon class="cls-10" points="1653.53 366.16 1695.47 331.21 1619.63 331.21 1565.92 326.07 1549.29 339.67 1653.53 366.16"/>
          <polygon class="cls-10" points="1672.04 360.03 1695.47 341.38 1724.07 341.38 1701.5 357.8 1672.04 360.03"/>
          <polygon class="cls-10" points="1698.06 377.47 1743.85 360.03 1751.33 362.99 1720.06 383.06 1698.06 377.47"/>
          <polygon class="cls-10" points="1524.65 269.28 1562.62 244.53 1493.01 242.38 1467.3 262.89 1524.65 269.28"/>
          <polygon class="cls-10" points="1546.35 260.94 1590.36 248.99 1619.63 255.83 1594.46 266.94 1546.35 260.94"/>
          <polygon class="cls-10" points="1779.53 81.04 1736.56 150.15 1802.03 155.82 1844.55 151.94 1918.67 9.64 1779.53 81.04"/>
          <polygon class="cls-10" points="1894.33 87.42 1918.67 52.52 1940.36 48.6 1917.34 82.73 1894.33 87.42"/>
          <polygon class="cls-10" points="1424.53 60.79 1519.12 -18.49 1514.96 -48.83 1343.21 40.18 1317.54 100.14 1424.53 60.79"/>
          <polygon class="cls-10" points="1509.61 5.9 1573.29 -39.79 1645.52 -63.85 1635.49 -38.67 1509.61 5.9"/>
          <polygon class="cls-10" points="1505.51 13.36 1509.61 8.32 1542.25 -1.15 1539.45 3.1 1505.51 13.36"/>
          <polygon class="cls-10" points="1455.62 111.56 1438.28 119.1 1431.29 123.57 1480.24 121.05 1509.61 109.02 1455.62 111.56"/>
          <polygon class="cls-10" points="1881.65 589.1 1851.44 629.22 1831.73 677.62 1851.33 668.22 1933.62 572.59 1881.65 589.1"/>
        </g>
        <g class="cls-2">
          <polygon class="cls-12" points="1787.93 409.35 1795.64 405.35 1787.93 416.48 1787.93 409.35"/>
          <polygon class="cls-12" points="1721.08 570.63 1729.36 581.57 1738.2 582.91 1721.08 570.63"/>
          <polygon class="cls-12" points="1436.98 80.79 1445.25 91.72 1454.1 93.06 1436.98 80.79"/>
          <polygon class="cls-12" points="1822.73 625.67 1816.74 614.11 1822.73 615.47 1832.74 623.35 1822.73 625.67"/>
          <polygon class="cls-12" points="1467.74 719.32 1461.51 713.8 1465.23 709.55 1477.14 717.95 1467.74 719.32"/>
          <polygon class="cls-12" points="1703.16 149.51 1696.93 144 1700.65 139.74 1712.56 148.15 1703.16 149.51"/>
          <polygon class="cls-12" points="1471.82 709.55 1477.14 710.37 1477.14 707.15 1471.82 709.55"/>
          <polygon class="cls-12" points="1622.52 565.44 1637.83 563.52 1644.01 558.68 1622.52 565.44"/>
          <polygon class="cls-12" points="1615.73 573.77 1623.48 572.04 1618.55 577.37 1615.73 573.77"/>
          <polygon class="cls-12" points="1579.05 705.5 1592.24 702.61 1583.96 709.37 1579.05 705.5"/>
          <polygon class="cls-12" points="1373.25 37.73 1386.44 34.84 1378.16 41.6 1373.25 37.73"/>
          <polygon class="cls-12" points="1907.37 214.79 1920.55 211.9 1912.28 218.66 1907.37 214.79"/>
          <polygon class="cls-12" points="1437.54 215.28 1442.68 222.27 1448.93 224.27 1440.32 215.28 1437.54 215.28"/>
          <polygon class="cls-12" points="1347.32 95.31 1352.21 108.58 1356.74 108.58 1350.32 97.53 1347.32 95.31"/>
        </g>
        <polygon class="cls-7" points="1823.43 332.84 1836.04 353.09 1851.44 342.96 1860.39 371.54 1848.51 421.76 1841.91 421.76 1823.43 467.94 1849.76 513.51 1878.56 522.65 1890.47 558.68 1900.67 570.63 1940.61 582.91 1940.61 575.69 1936.85 580.08 1902.35 568.02 1891.9 556.4 1878.85 521.53 1854.79 514.26 1850.04 510.25 1831.72 478.12 1827.29 461.39 1842.1 422.42 1849.9 422.11 1854.3 401.13 1862.07 370.78 1853.17 344.44 1850.78 340.17 1840.06 349.4 1835.49 350.34 1823.43 332.84"/>
        <polygon class="cls-6" points="1823.99 467.91 1830.28 478.93 1831.09 478.05 1826.93 463.19 1823.99 467.91"/>
        <polygon class="cls-6" points="1900.95 570.11 1901.27 567.64 1902.63 568.52 1906.68 570.11 1907.29 572.59 1900.95 570.11"/>
        <polygon class="cls-7" points="1431.29 -5.47 1496.37 17.65 1491.9 20.63 1491.52 28.84 1511.37 28.84 1501.45 55.69 1481.55 106.15 1495.16 114.94 1501.45 122.1 1487.16 215.28 1487.16 231.84 1498.98 242.38 1488.49 231.55 1488.07 217.84 1501.45 133.36 1509.61 121.01 1502.62 118.46 1495.62 112.66 1483.6 104.83 1515.34 27.38 1498.35 28.04 1493.81 25.66 1492.69 21.05 1498.14 17 1431.29 -5.47"/>
        <polygon class="cls-6" points="1501.03 118.46 1502.11 123.57 1501.45 130.33 1508.26 121.61 1501.03 118.46"/>
        <polygon class="cls-7" points="1490.05 655.39 1528.91 671.38 1530.87 679.31 1542.98 689.24 1535.63 737.85 1520.8 758.02 1504.98 765.47 1487.86 789.19 1489.44 793.5 1502.41 770.02 1505.07 766.14 1521.08 759.41 1534.12 740.47 1536.6 738.69 1542.98 690.53 1544.2 687.92 1533.06 680.72 1531.1 671.97 1522.49 664.85 1490.05 655.39"/>
        <polygon class="cls-6" points="1521.88 665.02 1513.35 663.02 1512.79 663.69 1524.75 669.04 1525.72 669.04 1521.88 665.02"/>
      </g>
    </g>
  </g>
</svg>